<?xml version="1.0" encoding="UTF-8"?><svg xmlns="http://www.w3.org/2000/svg" xmlns:xlink="http://www.w3.org/1999/xlink" version="1.1" id="Layer_1" x="0px" y="0px" viewBox="0 0 48 48" xml:space="preserve"><path d="M2.81 31.658l12.717-9.92c3.14-2.45 7.168-3.314 10.984-2.356l17.162 4.309c2.48.623 3.162 3.956 1.139 5.574L29.672 41.38c-3.749 3-8.832 3.463-13.026 1.187L3.088 35.21c-1.321-.717-1.47-2.622-.278-3.552z" fill="#1565C0"/><path d="M2.81 26.658l12.717-9.92c3.14-2.45 7.168-3.314 10.984-2.356l17.162 4.309c2.48.623 3.162 3.956 1.139 5.574L29.672 36.38c-3.749 3-8.832 3.463-13.026 1.187L3.088 30.21c-1.321-.717-1.47-2.622-.278-3.552z" fill="#C62828"/><path d="M2.81 21.658l12.717-9.92c3.14-2.45 7.168-3.314 10.984-2.356l17.162 4.309c2.48.623 3.162 3.956 1.139 5.574L29.672 31.38c-3.749 3-8.832 3.463-13.026 1.187L3.088 25.21c-1.321-.717-1.47-2.622-.278-3.552z" fill="#FDD835"/><path d="M2.81 16.658l12.717-9.92c3.14-2.45 7.168-3.314 10.984-2.356l17.162 4.309c2.48.623 3.162 3.956 1.139 5.574L29.672 26.38c-3.749 3-8.832 3.463-13.026 1.187L3.088 20.21c-1.321-.717-1.47-2.622-.278-3.552z" fill="#7CB342"/><metadata><rdf:RDF xmlns:rdf="http://www.w3.org/1999/02/22-rdf-syntax-ns#" xmlns:rdfs="http://www.w3.org/2000/01/rdf-schema#" xmlns:dc="http://purl.org/dc/elements/1.1/"><rdf:Description about="https://iconscout.com/legal#licenses" dc:title="bluestacks" dc:description="bluestacks" dc:publisher="Iconscout" dc:date="2017-12-15" dc:format="image/svg+xml" dc:language="en"><dc:creator><rdf:Bag><rdf:li>Icons8</rdf:li></rdf:Bag></dc:creator></rdf:Description></rdf:RDF></metadata></svg>